<svg width="100" height="100" viewBox="0 0 152 155" fill="none" xmlns="http://www.w3.org/2000/svg">
<rect x="0.5" y="0.5" width="150.526" height="153.622" rx="75.2631" stroke="#4E3C3C"/>
<path d="M48.8694 36.9816H27.5508M38.2101 47.8586V26.1045" stroke="#4E3C3C" stroke-width="2" stroke-linecap="round"/>
<path d="M70.1886 28.3343C73.5585 26.8669 77.184 26.1085 80.8479 26.1045C85.6506 26.1118 90.3621 27.4434 94.4842 29.9585C98.6062 32.4736 101.986 36.0787 104.265 40.3926C106.544 44.7064 107.638 49.5686 107.432 54.4649C107.226 59.3612 105.727 64.1097 103.093 68.208C100.459 72.3064 96.7894 75.6023 92.4711 77.7472C88.1528 79.8921 83.3466 80.8062 78.561 80.3929C73.7754 79.9796 69.1882 78.2542 65.2845 75.3993C61.3808 72.5443 58.3059 68.6659 56.3848 64.1742" stroke="#4E3C3C" stroke-width="1.216" stroke-linecap="round"/>
<path d="M75.5185 80.4902H86.1778C96.0724 80.4902 105.562 84.5011 112.558 91.6406C119.555 98.7801 123.485 108.463 123.485 118.56C123.485 120.002 122.924 121.386 121.924 122.406C120.925 123.425 119.569 123.998 118.156 123.998H43.5406C42.1271 123.998 40.7715 123.425 39.772 122.406C38.7725 121.386 38.2109 120.002 38.2109 118.56C38.2109 108.463 42.1415 98.7801 49.1381 91.6406C56.1346 84.5011 65.6239 80.4902 75.5185 80.4902Z" stroke="#4E3C3C" stroke-width="1.216" stroke-linecap="round"/>
</svg>
