<svg width="60" height="60" viewBox="0 0 60 60" fill="none" xmlns="http://www.w3.org/2000/svg">
<path d="M30 60C46.5685 60 60 46.5685 60 30C60 13.4315 46.5685 0 30 0C13.4315 0 0 13.4315 0 30C0 46.5685 13.4315 60 30 60Z" fill="#046E8F"/>
<g clip-path="url(#clip0_755_6460)">
<path d="M50 36.5C50 31.8334 47.5 28.1667 43.8333 26.3334C45.5 24.6667 46.6667 22.5 46.6667 20C46.6667 15.3334 43 11.6667 38.3333 11.6667C34.8333 11.6667 32 13.6667 30.6667 16.6667C30.5 16.6667 30.1667 16.6667 30 16.6667C29.8333 16.6667 29.5 16.6667 29.3333 16.6667C28 13.6667 25.1667 11.6667 21.6667 11.6667C17 11.6667 13.3333 15.3334 13.3333 20C13.3333 22.5 14.5 24.6667 16.1667 26.3334C12.5 28.1667 10 32 10 36.5V43.3334H18.3333V48.3334H41.6667V43.3334H50V36.5ZM38.3333 15C41.1667 15 43.3333 17.1667 43.3333 20C43.3333 22.6667 41.1667 25 38.3333 25C38.3333 21.8334 36.5 19.1667 33.8333 17.6667C34.6667 16 36.3333 15 38.3333 15ZM35 25C35 27.8334 32.8333 30 30 30C27.1667 30 25 27.8334 25 25C25 22.1667 27.1667 20 30 20C32.8333 20 35 22.1667 35 25ZM21.6667 15C23.6667 15 25.3333 16 26.1667 17.6667C23.5 19.1667 21.6667 21.8334 21.6667 25C18.8333 25 16.6667 22.8334 16.6667 20C16.6667 17.1667 18.8333 15 21.6667 15ZM18.5 40H13.3333V36.5C13.3333 31.8334 16.8333 28.3334 21.6667 28.3334C21.8333 28.3334 22 28.3334 22.1667 28.3334C22.6667 29.5 23.5 30.5 24.3333 31.3334C21.1667 33 19 36.1667 18.5 40ZM38.3333 45H21.6667V41.5C21.6667 36.8334 25.3333 33.3334 30 33.3334C34.8333 33.3334 38.3333 36.8334 38.3333 41.5V45ZM46.6667 40H41.5C41 36.1667 38.6667 33 35.3333 31.3334C36.3333 30.5 37 29.5 37.5 28.3334C37.6667 28.3334 37.8333 28.3334 38.1667 28.3334C43 28.3334 46.5 31.8334 46.5 36.5V40H46.6667Z" fill="white"/>
</g>
<defs>
<clipPath id="clip0_755_6460">
<rect width="40" height="40" fill="white" transform="translate(10 10)"/>
</clipPath>
</defs>
</svg>
