<svg width="30" height="30" viewBox="0 0 30 30" fill="none" xmlns="http://www.w3.org/2000/svg">
<path d="M14.9862 0C13.3507 0 11.7301 0.26563 10.1695 0.789616C8.63024 1.30662 7.19885 2.05767 5.91511 3.02197C0.776079 6.88231 -1.27816 13.5322 0.803278 19.5695C2.09262 23.3138 4.78195 26.3371 8.37571 28.0824C10.4637 29.098 12.6878 29.613 14.9862 29.6131H14.9868C16.6264 29.6131 18.256 29.3453 19.8306 28.817C21.3696 28.3001 22.8014 27.5487 24.0859 26.5839C29.2243 22.7239 31.2782 16.0744 29.1965 10.0372C27.1276 4.03357 21.4168 0 14.9862 0ZM16.4376 3.26345C16.6525 3.10208 16.874 2.94172 17.096 2.7869L17.2682 2.66671L17.4749 2.70818C18.4858 2.91029 19.4724 3.23704 20.4072 3.67925L21.0895 4.00199L20.5105 4.48283C15.6773 8.49515 14.6912 12.604 14.5336 14.696L14.5103 15.0032L14.2184 15.1115C13.6648 15.3169 13.0664 15.421 12.44 15.421C11.7405 15.421 10.9924 15.2913 10.2165 15.0354L9.88516 14.9262L9.88295 14.5812C9.87322 13.0886 10.3175 7.8608 16.4376 3.26345ZM3.46932 10.0232C4.31964 8.02581 5.68668 6.28084 7.42256 4.97691C8.49579 4.17078 9.69019 3.54436 10.9728 3.11488C11.3533 2.98647 11.7633 2.87086 12.1913 2.77155L13.8406 2.38842L12.6509 3.57913C9.15174 7.08071 8.04601 10.655 7.73458 13.0369L7.63227 13.8183L6.97396 13.3728C5.5537 12.4116 4.34131 11.3075 3.57428 10.5506L3.34224 10.3215L3.46932 10.0232ZM3.02108 18.3292L2.96816 18.1444C2.55648 16.7068 2.41253 15.2264 2.54034 13.7444L2.62268 12.7912L3.34983 13.4236C5.16827 15.0051 8.76918 17.6583 12.4549 17.6583C13.4991 17.6583 14.4977 17.4457 15.4229 17.0262L15.6542 16.9215L15.8738 17.0487C16.9679 17.6823 17.9585 18.4225 18.8181 19.2486L19.2595 19.6729L18.7404 20.0003C17.6711 20.6742 15.8524 21.4872 13.2597 21.5332C13.1829 21.5346 13.1055 21.5351 13.0283 21.5351C10.0029 21.5351 6.69224 20.4894 3.18811 18.4272L3.02108 18.3292ZM22.0288 25.0094C21.0892 25.6404 20.0795 26.139 19.0273 26.4916C17.7148 26.9326 16.3554 27.1565 14.987 27.1565C13.0714 27.1565 11.217 26.7274 9.4754 25.881C8.11485 25.2198 6.90172 24.3334 5.8697 23.2467L4.41215 21.7119L6.40138 22.4672C8.70166 23.3406 10.933 23.7834 13.0333 23.7834C16.4279 23.7834 18.8261 22.6435 20.2401 21.6872L20.6606 21.4031L20.9304 21.8294C21.4577 22.6628 21.8897 23.5446 22.2143 24.4501L22.3398 24.8003L22.0288 25.0094ZM26.608 19.407C26.135 20.5734 25.4855 21.6588 24.6774 22.6328L24.1779 23.235L23.8543 22.5253C22.8825 20.3943 20.9103 17.3829 17.0334 15.1377L16.7659 14.9828L16.7942 14.678C16.8727 13.8361 17.145 12.4965 17.9963 10.8951L18.2036 10.5051L18.6157 10.6737C20.5699 11.473 24.2058 13.6219 26.6023 19.035L26.6839 19.2198L26.608 19.407ZM26.5956 14.4436C24.3995 11.3371 21.847 9.70951 20.0924 8.89116L19.5069 8.61804L19.9338 8.13749C20.7192 7.25409 21.6572 6.39703 22.7216 5.59002L23.0426 5.34658L23.3444 5.61302C24.9426 7.02294 26.152 8.82655 26.8415 10.8288C27.2049 11.8799 27.4209 12.9946 27.4838 14.1419L27.5759 15.8302L26.5956 14.4436Z" fill="#454545"/>
</svg>
