<svg width="60" height="60" viewBox="0 0 60 60" fill="none" xmlns="http://www.w3.org/2000/svg">
<path d="M30 60C46.5685 60 60 46.5685 60 30C60 13.4315 46.5685 0 30 0C13.4315 0 0 13.4315 0 30C0 46.5685 13.4315 60 30 60Z" fill="#046E8F"/>
<path fill-rule="evenodd" clip-rule="evenodd" d="M16.25 13.7573C14.1941 13.7573 12.5 15.4514 12.5 17.5073V43.7573C12.5 45.8132 14.1941 47.5073 16.25 47.5073H43.75C45.8059 47.5073 47.5 45.8132 47.5 43.7573V17.5073C47.5 15.4514 45.8059 13.7573 43.75 13.7573H16.25ZM16.25 16.2573H43.75C44.4641 16.2573 45 16.7932 45 17.5073V43.7573C45 44.4714 44.4641 45.0073 43.75 45.0073H16.25C15.5359 45.0073 15 44.4714 15 43.7573V17.5073C15 16.7932 15.5359 16.2573 16.25 16.2573Z" fill="white"/>
<path fill-rule="evenodd" clip-rule="evenodd" d="M13.75 22.5073C13.4185 22.5073 13.1006 22.639 12.8661 22.8734C12.6317 23.1079 12.5 23.4258 12.5 23.7573C12.5 24.0888 12.6317 24.4068 12.8661 24.6412C13.1006 24.8756 13.4185 25.0073 13.75 25.0073H46.25C46.5815 25.0073 46.8994 24.8756 47.1339 24.6412C47.3683 24.4068 47.5 24.0888 47.5 23.7573C47.5 23.4258 47.3683 23.1079 47.1339 22.8734C46.8994 22.639 46.5815 22.5073 46.25 22.5073H13.75Z" fill="white"/>
<path fill-rule="evenodd" clip-rule="evenodd" d="M18.75 11.2573C18.4185 11.2573 18.1006 11.389 17.8661 11.6234C17.6317 11.8579 17.5 12.1758 17.5 12.5073V18.7573C17.5 19.0888 17.6317 19.4068 17.8661 19.6412C18.1006 19.8756 18.4185 20.0073 18.75 20.0073C19.0815 20.0073 19.3994 19.8756 19.6339 19.6412C19.8683 19.4068 20 19.0888 20 18.7573V12.5073C20 12.1758 19.8683 11.8579 19.6339 11.6234C19.3994 11.389 19.0815 11.2573 18.75 11.2573Z" fill="white"/>
<path fill-rule="evenodd" clip-rule="evenodd" d="M30 11.2573C29.6685 11.2573 29.3506 11.389 29.1161 11.6234C28.8817 11.8579 28.75 12.1758 28.75 12.5073V18.7573C28.75 19.0888 28.8817 19.4068 29.1161 19.6412C29.3506 19.8756 29.6685 20.0073 30 20.0073C30.3315 20.0073 30.6494 19.8756 30.8839 19.6412C31.1183 19.4068 31.25 19.0888 31.25 18.7573V12.5073C31.25 12.1758 31.1183 11.8579 30.8839 11.6234C30.6494 11.389 30.3315 11.2573 30 11.2573Z" fill="white"/>
<path fill-rule="evenodd" clip-rule="evenodd" d="M41.25 11.2573C40.9185 11.2573 40.6006 11.389 40.3661 11.6234C40.1317 11.8579 40 12.1758 40 12.5073V18.7573C40 19.0888 40.1317 19.4068 40.3661 19.6412C40.6006 19.8756 40.9185 20.0073 41.25 20.0073C41.5815 20.0073 41.8994 19.8756 42.1339 19.6412C42.3683 19.4068 42.5 19.0888 42.5 18.7573V12.5073C42.5 12.1758 42.3683 11.8579 42.1339 11.6234C41.8994 11.389 41.5815 11.2573 41.25 11.2573Z" fill="white"/>
<path fill-rule="evenodd" clip-rule="evenodd" d="M20 27.5073C18.6366 27.5073 17.5 28.6439 17.5 30.0073V32.5073C17.5 33.8707 18.6366 35.0073 20 35.0073H30C31.3634 35.0073 32.5 33.8707 32.5 32.5073V30.0073C32.5 28.6439 31.3634 27.5073 30 27.5073H20ZM20 30.0073H30V32.5073H20V30.0073Z" fill="white"/>
<path fill-rule="evenodd" clip-rule="evenodd" d="M37.5 27.5073C36.1366 27.5073 35 28.6439 35 30.0073V32.5073C35 33.8707 36.1366 35.0073 37.5 35.0073H40C41.3634 35.0073 42.5 33.8707 42.5 32.5073V30.0073C42.5 28.6439 41.3634 27.5073 40 27.5073H37.5ZM37.5 30.0073H40V32.5073H37.5V30.0073Z" fill="white"/>
<path fill-rule="evenodd" clip-rule="evenodd" d="M28.75 36.2573C27.3866 36.2573 26.25 37.3939 26.25 38.7573V41.2573C26.25 42.6207 27.3866 43.7573 28.75 43.7573H31.25C32.6134 43.7573 33.75 42.6207 33.75 41.2573V38.7573C33.75 37.3939 32.6134 36.2573 31.25 36.2573H28.75ZM28.75 38.7573H31.25V41.2573H28.75V38.7573Z" fill="white"/>
<path fill-rule="evenodd" clip-rule="evenodd" d="M20 36.2573C18.6366 36.2573 17.5 37.3939 17.5 38.7573V41.2573C17.5 42.6207 18.6366 43.7573 20 43.7573H22.5C23.8634 43.7573 25 42.6207 25 41.2573V38.7573C25 37.3939 23.8634 36.2573 22.5 36.2573H20ZM20 38.7573H22.5V41.2573H20V38.7573Z" fill="white"/>
<path fill-rule="evenodd" clip-rule="evenodd" d="M37.5 36.2573C36.1366 36.2573 35 37.3939 35 38.7573V41.2573C35 42.6207 36.1366 43.7573 37.5 43.7573H40C41.3634 43.7573 42.5 42.6207 42.5 41.2573V38.7573C42.5 37.3939 41.3634 36.2573 40 36.2573H37.5ZM37.5 38.7573H40V41.2573H37.5V38.7573Z" fill="white"/>
</svg>
