<svg width="30" height="30" viewBox="0 0 30 30" fill="none" xmlns="http://www.w3.org/2000/svg">
<path d="M9.29736 5.75897H20.5977C22.8542 3.73385 22.9417 2.21652 22.9767 2.12584C23.2128 0.814047 21.481 -0.219672 19.6181 0.0402695C18.1924 0.27603 16.6355 0.390888 14.9737 0.390888C13.3119 0.390888 11.7463 0.27603 10.3294 0.06445C8.46645 -0.219672 6.69969 0.838228 6.93584 2.12584C6.96208 2.2407 7.32068 4.21142 9.29736 5.75897Z" fill="#046E8F"/>
<path d="M21.105 7.03418H8.82507C3.62974 9.80285 0 15.6425 0 20.539C0 27.2249 6.7172 29.6128 15 29.6128C23.2828 29.6128 30 27.1947 30 20.539C29.965 15.6425 26.3353 9.80285 21.105 7.03418ZM16.3294 23.6885V24.3233C16.3294 24.8311 15.7347 25.2421 15 25.2421C14.2653 25.2421 13.6706 24.8311 13.6706 24.3233V23.6885C12.8921 23.5253 12.1837 23.2291 11.6152 22.812C11.1166 22.4432 11.1341 21.8629 11.6764 21.5123C12.2099 21.1677 13.0496 21.1798 13.5569 21.5546C13.9329 21.8327 14.449 21.9899 15.0087 21.9899C16.102 21.9899 16.9942 21.3733 16.9942 20.6176C16.9942 19.862 16.102 19.2454 15.0087 19.2454C12.4461 19.2454 10.3644 17.8066 10.3644 16.0354C10.3644 14.5846 11.7638 13.3574 13.6793 12.9584V12.3237C13.6793 11.8159 14.2741 11.4048 15.0087 11.4048C15.7434 11.4048 16.3382 11.8159 16.3382 12.3237V12.9584C17.1166 13.1216 17.8251 13.4178 18.3936 13.835C18.8921 14.2037 18.8746 14.784 18.3411 15.1347C17.8076 15.4792 16.9679 15.4672 16.4606 15.0984C16.0845 14.8203 15.5685 14.6631 15.0087 14.6631C13.9155 14.6631 13.0233 15.2797 13.0233 16.0354C13.0233 16.791 13.9155 17.4076 15.0087 17.4076C17.5714 17.4076 19.6531 18.8464 19.6531 20.6176C19.6443 22.0684 18.2449 23.2956 16.3294 23.6885Z" fill="#046E8F"/>
</svg>
