<svg width="60" height="60" viewBox="0 0 60 60" fill="none" xmlns="http://www.w3.org/2000/svg">
<path d="M30 60C46.5685 60 60 46.5685 60 30C60 13.4315 46.5685 0 30 0C13.4315 0 0 13.4315 0 30C0 46.5685 13.4315 60 30 60Z" fill="#046E8F"/>
<g clip-path="url(#clip0_755_6455)">
<path d="M38.5833 26.75C37.3563 26.7742 36.1555 26.3935 35.1666 25.6667C34.9815 25.5436 34.7735 25.4587 34.555 25.4172C34.3366 25.3757 34.112 25.3783 33.8946 25.4249C33.6771 25.4715 33.4712 25.5611 33.289 25.6885C33.1067 25.8159 32.9518 25.9785 32.8333 26.1667C32.7019 26.323 32.6038 26.5045 32.545 26.7C32.4862 26.8956 32.4679 27.1011 32.4913 27.3039C32.5147 27.5068 32.5793 27.7027 32.6811 27.8797C32.7829 28.0567 32.9198 28.2111 33.0833 28.3334C34.1556 29.0859 35.378 29.5976 36.6666 29.8334V31.6667C36.6666 32.1087 36.8422 32.5326 37.1548 32.8452C37.4673 33.1578 37.8913 33.3334 38.3333 33.3334C38.7753 33.3334 39.1993 33.1578 39.5118 32.8452C39.8244 32.5326 40 32.1087 40 31.6667V29.8334C40.9141 29.6985 41.7765 29.3248 42.5 28.75C43.0223 28.3665 43.4459 27.8642 43.7358 27.2846C44.0256 26.705 44.1733 26.0647 44.1666 25.4167C44.1666 22.3334 41.3333 21.3334 38.9166 20.8334C36.5 20.3334 36 19.75 36 19.3334C36 18.9167 36.1666 18.8334 36.4166 18.5834C36.8764 18.3362 37.3955 18.2208 37.9166 18.25C38.8849 18.2416 39.8367 18.5012 40.6666 19C40.8353 19.1377 41.032 19.237 41.2429 19.291C41.4539 19.345 41.674 19.3524 41.8881 19.3128C42.1022 19.2731 42.3051 19.1874 42.4827 19.0614C42.6604 18.9354 42.8084 18.7723 42.9166 18.5834C43.0595 18.4129 43.1648 18.2144 43.2258 18.0005C43.2868 17.7867 43.3021 17.5624 43.2706 17.3423C43.2392 17.1222 43.1617 16.9112 43.0433 16.723C42.9249 16.5348 42.7681 16.3736 42.5833 16.25C41.7909 15.7609 40.9152 15.4219 40 15.25V13.3334C40 12.8913 39.8244 12.4674 39.5118 12.1548C39.1993 11.8423 38.7753 11.6667 38.3333 11.6667C37.8913 11.6667 37.4673 11.8423 37.1548 12.1548C36.8422 12.4674 36.6666 12.8913 36.6666 13.3334V15.1667C34.1666 15.5834 32.5 17.25 32.5 19.5C32.5 21.75 35.25 23.5834 37.9166 24.0834C40.5833 24.5834 40.6666 25.1667 40.6666 25.5834C40.6666 26 39.75 26.75 38.5833 26.75Z" fill="white"/>
<path d="M45.1667 36.4167C44.7037 36.0433 44.1688 35.7693 43.5954 35.6116C43.0219 35.4539 42.4221 35.4159 41.8333 35.5L33.5833 37C33.5877 36.4862 33.4863 35.9769 33.2856 35.5039C33.085 35.0308 32.7892 34.604 32.4167 34.25L26.5 28.3334H14.1667C13.7246 28.3334 13.3007 28.509 12.9882 28.8215C12.6756 29.1341 12.5 29.558 12.5 30V37.5C12.5 37.9421 12.6756 38.366 12.9882 38.6786C13.3007 38.9911 13.7246 39.1667 14.1667 39.1667H16.9167L26.25 46.75L43.25 43.6667C44.0181 43.5167 44.7283 43.1535 45.2996 42.6186C45.8708 42.0837 46.2798 41.3988 46.4798 40.6422C46.6798 39.8856 46.6627 39.088 46.4305 38.3407C46.1983 37.5934 45.7603 36.9266 45.1667 36.4167ZM42.6667 40.4167L27.0833 43.25L18.3333 36V31.6667H25.1667L30.0833 36.5834C30.2159 36.716 30.2904 36.8958 30.2904 37.0834C30.2904 37.2709 30.2159 37.4508 30.0833 37.5834C29.9507 37.716 29.7709 37.7905 29.5833 37.7905C29.3958 37.7905 29.2159 37.716 29.0833 37.5834L26.1667 34.6667C25.8457 34.426 25.4487 34.3091 25.0485 34.3376C24.6483 34.366 24.2718 34.5378 23.9882 34.8215C23.7045 35.1052 23.5326 35.4817 23.5042 35.8819C23.4758 36.2821 23.5926 36.6791 23.8333 37L26.75 39.9167C27.1135 40.2997 27.5538 40.6016 28.0421 40.8026C28.5303 41.0037 29.0555 41.0993 29.5833 41.0834C30.0935 41.0811 30.6 40.9967 31.0833 40.8334L42.4167 38.8334C42.6521 38.8004 42.8911 38.8601 43.0833 39C43.1651 39.0731 43.2299 39.1632 43.2731 39.264C43.3163 39.3647 43.3368 39.4738 43.3333 39.5834C43.3373 39.7783 43.2727 39.9685 43.1509 40.1208C43.0291 40.273 42.8577 40.3777 42.6667 40.4167Z" fill="white"/>
</g>
<defs>
<clipPath id="clip0_755_6455">
<rect width="40" height="40" fill="white" transform="translate(10 10)"/>
</clipPath>
</defs>
</svg>
