<svg width="60" height="60" viewBox="0 0 60 60" fill="none" xmlns="http://www.w3.org/2000/svg">
<path d="M30 60C46.5685 60 60 46.5685 60 30C60 13.4315 46.5685 0 30 0C13.4315 0 0 13.4315 0 30C0 46.5685 13.4315 60 30 60Z" fill="#046E8F"/>
<path d="M45.8559 17.0481C45.6528 16.0375 45.1432 15.1141 44.3965 14.4035C43.6498 13.6929 42.7022 13.2297 41.6828 13.0769C40.9932 12.9894 40.2931 13.0395 39.623 13.2244C38.9529 13.4092 38.3261 13.7252 37.779 14.1539C37.7018 14.2127 37.6418 14.291 37.605 14.3808C37.5682 14.4705 37.5561 14.5685 37.5698 14.6645C37.5835 14.7605 37.6226 14.8512 37.683 14.927C37.7435 15.0029 37.823 15.0613 37.9136 15.0962C40.4045 16.4458 42.5653 18.3307 44.2405 20.6154C44.2921 20.6931 44.3621 20.7569 44.4443 20.801C44.5265 20.8452 44.6183 20.8682 44.7116 20.8682C44.8049 20.8682 44.8968 20.8452 44.979 20.801C45.0612 20.7569 45.1312 20.6931 45.1828 20.6154C45.5298 20.0969 45.7684 19.5136 45.8841 18.9006C45.9997 18.2875 45.9901 17.6573 45.8559 17.0481ZM21.0866 15.1635C21.1659 15.1175 21.2338 15.0542 21.285 14.9782C21.3363 14.9023 21.3697 14.8157 21.3826 14.725C21.3956 14.6343 21.3878 14.5418 21.3599 14.4545C21.3319 14.3673 21.2845 14.2875 21.2213 14.2212C20.6915 13.7627 20.0663 13.4282 19.3909 13.2419C18.7156 13.0556 18.0073 13.0222 17.3174 13.1442C16.299 13.2717 15.347 13.718 14.5975 14.4191C13.848 15.1203 13.3394 16.0404 13.1443 17.0481C12.929 18.2881 13.1937 19.5635 13.8847 20.6154C13.9363 20.6931 14.0063 20.7569 14.0885 20.801C14.1707 20.8452 14.2626 20.8682 14.3559 20.8682C14.4492 20.8682 14.541 20.8452 14.6232 20.801C14.7054 20.7569 14.7755 20.6931 14.827 20.6154C16.4461 18.3224 18.5931 16.4524 21.0866 15.1635ZM29.5001 16.375C25.5761 16.3857 21.8159 17.9492 19.0413 20.7239C16.2666 23.4985 14.7031 27.2587 14.6924 31.1827C14.6817 34.3362 15.6976 37.4076 17.5866 39.9327L15.3655 42.1539C15.1579 42.3547 14.9928 42.5952 14.88 42.8612C14.7673 43.1272 14.7091 43.4131 14.7091 43.7019C14.7091 43.9908 14.7673 44.2767 14.88 44.5427C14.9928 44.8086 15.1579 45.0492 15.3655 45.25C15.5638 45.4619 15.8036 45.6309 16.0698 45.7464C16.3361 45.8619 16.6233 45.9215 16.9136 45.9215C17.2038 45.9215 17.491 45.8619 17.7573 45.7464C18.0236 45.6309 18.2633 45.4619 18.4616 45.25L20.6828 43.0289C23.2381 44.9092 26.3276 45.9233 29.5001 45.9231C32.6536 45.9338 35.725 44.9179 38.2501 43.0289L40.4713 45.25C40.6797 45.4673 40.9308 45.6393 41.2087 45.7551C41.4867 45.8709 41.7856 45.9281 42.0866 45.9231C42.5195 45.9145 42.9403 45.7795 43.2975 45.5349C43.6546 45.2903 43.9325 44.9467 44.097 44.5462C44.2614 44.1458 44.3053 43.706 44.2232 43.281C44.1411 42.856 43.9365 42.4642 43.6347 42.1539L41.4136 39.9327C43.3026 37.4076 44.3185 34.3362 44.3078 31.1827C44.3131 29.2366 43.9338 27.3087 43.1915 25.5097C42.4492 23.7108 41.3587 22.0763 39.9826 20.7002C38.6065 19.3241 36.972 18.2336 35.1731 17.4913C33.3741 16.7491 31.4462 16.3697 29.5001 16.375ZM19.0674 31.1154C19.0674 29.052 19.6793 27.0349 20.8256 25.3193C21.972 23.6037 23.6014 22.2665 25.5077 21.4768C27.414 20.6872 29.5117 20.4806 31.5354 20.8832C33.5592 21.2857 35.4181 22.2793 36.8771 23.7384C38.3362 25.1974 39.3298 27.0563 39.7323 29.0801C40.1349 31.1038 39.9283 33.2015 39.1387 35.1078C38.349 37.0141 37.0118 38.6435 35.2962 39.7899C33.5806 40.9362 31.5635 41.5481 29.5001 41.5481C28.1298 41.549 26.7728 41.2797 25.5066 40.7557C24.2405 40.2318 23.09 39.4633 22.1211 38.4944C21.1522 37.5255 20.3837 36.375 19.8598 35.1089C19.3358 33.8427 19.0665 32.4857 19.0674 31.1154ZM31.1828 30.5096V26.2019C31.1855 25.989 31.1456 25.7778 31.0654 25.5806C30.9851 25.3833 30.8663 25.2042 30.7157 25.0536C30.5652 24.9031 30.386 24.7842 30.1888 24.704C29.9916 24.6238 29.7803 24.5838 29.5674 24.5865C29.1406 24.5918 28.7328 24.7637 28.431 25.0655C28.1291 25.3673 27.9573 25.7751 27.952 26.2019V31.1154C27.9366 31.3296 27.9711 31.5444 28.0529 31.743C28.1346 31.9415 28.2614 32.1184 28.4232 32.2596L32.2597 36.0962C32.5637 36.3987 32.9751 36.5685 33.404 36.5685C33.8328 36.5685 34.2442 36.3987 34.5482 36.0962C34.7074 35.9511 34.8346 35.7744 34.9216 35.5774C35.0086 35.3803 35.0535 35.1673 35.0535 34.9519C35.0535 34.7365 35.0086 34.5235 34.9216 34.3265C34.8346 34.1295 34.7074 33.9528 34.5482 33.8077L31.1828 30.5096Z" fill="white"/>
</svg>
