<svg width="30" height="30" viewBox="0 0 30 30" fill="none" xmlns="http://www.w3.org/2000/svg">
<path d="M29.9054 13.1013C29.8417 12.9507 29.7504 12.8138 29.6342 12.699L25.8852 8.9986C25.3964 8.51739 24.6064 8.51739 24.1176 8.9986C23.6289 9.48103 23.6289 10.2621 24.1176 10.7433L25.734 12.3387H18.751C18.0598 12.3387 17.501 12.8914 17.501 13.5725C17.501 14.2536 18.0598 14.8064 18.751 14.8064H25.7339L24.1176 16.4018C23.6288 16.8842 23.6288 17.6653 24.1176 18.1465C24.3613 18.3883 24.6813 18.508 25.0014 18.508C25.3214 18.508 25.6414 18.3884 25.8852 18.1465L29.6342 14.4461C29.7504 14.3325 29.8417 14.1956 29.9054 14.0438C30.0316 13.7429 30.0316 13.4023 29.9054 13.1013Z" fill="#AD343E"/>
<path d="M21.2511 17.2743C20.5598 17.2743 20.0011 17.827 20.0011 18.5081V24.6775H15.0008V4.93549C15.0008 4.39135 14.6383 3.91014 14.1095 3.75345L9.76799 2.46777H20.0011V8.63717C20.0011 9.31827 20.5598 9.87103 21.2511 9.87103C21.9424 9.87103 22.5012 9.31827 22.5012 8.63717V1.23392C22.5012 0.552757 21.9424 0 21.2511 0H1.25005C1.20505 0 1.16502 0.0185081 1.12131 0.0234244C1.06254 0.029613 1.0088 0.0394455 0.952551 0.0530374C0.821294 0.0863521 0.702518 0.13696 0.591301 0.206019C0.563819 0.223312 0.530068 0.224527 0.503816 0.24425C0.493737 0.251711 0.489987 0.265303 0.479967 0.272706C0.343729 0.378781 0.229993 0.508338 0.147488 0.662592C0.129968 0.695906 0.126218 0.731708 0.112506 0.766237C0.0724844 0.859993 0.0287711 0.951319 0.0137703 1.05496C0.0075004 1.09198 0.018751 1.12651 0.0175205 1.16231C0.0162899 1.18701 0 1.20922 0 1.23386V25.9114C0 26.5 0.421253 27.0059 1.00505 27.1206L13.5057 29.5884C13.587 29.6057 13.6695 29.6131 13.7507 29.6131C14.0369 29.6131 14.3182 29.5156 14.5432 29.333C14.832 29.0986 15.0007 28.7493 15.0007 28.3792V27.1453H21.2511C21.9424 27.1453 22.5012 26.5926 22.5012 25.9115V18.5081C22.5012 17.827 21.9424 17.2743 21.2511 17.2743Z" fill="#AD343E"/>
</svg>
