<svg width="7" height="25" viewBox="0 0 7 25" fill="none" xmlns="http://www.w3.org/2000/svg">
<path d="M3.56594 0.5C5.03164 0.5 6.22368 1.68714 6.22368 3.125C6.22368 4.56286 5.03164 5.75 3.56594 5.75C2.10024 5.75 0.908203 4.56286 0.908203 3.125C0.908203 1.68714 2.10024 0.5 3.56594 0.5ZM3.56594 19.25C5.03164 19.25 6.22368 20.4371 6.22368 21.875C6.22368 23.3129 5.03164 24.5 3.56594 24.5C2.10024 24.5 0.908203 23.3129 0.908203 21.875C0.908203 20.4371 2.10024 19.25 3.56594 19.25ZM3.56594 9.875C5.03164 9.875 6.22368 11.0621 6.22368 12.5C6.22368 13.9379 5.03164 15.125 3.56594 15.125C2.10024 15.125 0.908203 13.9379 0.908203 12.5C0.908203 11.0621 2.10024 9.875 3.56594 9.875Z" fill="#046E8F" stroke="#F3F3F3"/>
</svg>
