<svg width="30" height="30" viewBox="0 0 30 30" fill="none" xmlns="http://www.w3.org/2000/svg">
<path d="M17.082 9.16699C16.3917 9.16699 15.832 9.72664 15.832 10.417C15.832 11.1073 16.3917 11.667 17.082 11.667H22.9154C23.6057 11.667 24.1654 11.1073 24.1654 10.417C24.1654 9.72664 23.6057 9.16699 22.9154 9.16699H17.082Z" fill="#046E8F"/>
<path d="M15.832 19.583C15.832 18.8927 16.3915 18.333 17.082 18.333H22.915C23.6055 18.333 24.165 18.8927 24.165 19.583C24.165 20.2733 23.6055 20.833 22.915 20.833H17.082C16.3915 20.833 15.832 20.2733 15.832 19.583Z" fill="#046E8F"/>
<path d="M12.9659 7.86611C13.454 8.35426 13.454 9.14573 12.9659 9.63388L9.63258 12.9672C9.14443 13.4553 8.35296 13.4553 7.86481 12.9672L6.19814 11.3005C5.70999 10.8124 5.70999 10.0209 6.19814 9.53278C6.68629 9.04463 7.47776 9.04463 7.96591 9.53278L8.74869 10.3156L11.1981 7.86611C11.6864 7.37796 12.4777 7.37796 12.9659 7.86611Z" fill="#046E8F"/>
<path d="M12.9659 18.8008C13.454 18.3126 13.454 17.5213 12.9659 17.0331C12.4777 16.545 11.6864 16.545 11.1981 17.0331L8.74869 19.4824L7.96591 18.6998C7.47776 18.2116 6.68629 18.2116 6.19814 18.6998C5.70999 19.188 5.70999 19.9793 6.19814 20.4675L7.86481 22.1341C8.35296 22.6223 9.14443 22.6223 9.63258 22.1341L12.9659 18.8008Z" fill="#046E8F"/>
<path d="M3.75 0C1.67893 0 0 1.67893 0 3.75V26.25C0 28.321 1.67893 30 3.75 30H26.25C28.321 30 30 28.321 30 26.25V3.75C30 1.67893 28.321 0 26.25 0H3.75ZM2.5 3.75C2.5 3.05965 3.05965 2.5 3.75 2.5H26.25C26.9403 2.5 27.5 3.05965 27.5 3.75V26.25C27.5 26.9403 26.9403 27.5 26.25 27.5H3.75C3.05965 27.5 2.5 26.9403 2.5 26.25V3.75Z" fill="#046E8F"/>
</svg>
