<svg width="60" height="60" viewBox="0 0 60 60" fill="none" xmlns="http://www.w3.org/2000/svg">
<path d="M30 60C46.5685 60 60 46.5685 60 30C60 13.4315 46.5685 0 30 0C13.4315 0 0 13.4315 0 30C0 46.5685 13.4315 60 30 60Z" fill="#046E8F"/>
<g clip-path="url(#clip0_755_6457)">
<path d="M33.1836 26.8167L34.7669 28.4L37.9503 25.2333" stroke="white" stroke-width="5.09333" stroke-miterlimit="10"/>
<path d="M33.1836 33.1833L34.7669 34.7666L37.9503 31.6" stroke="white" stroke-width="5.09333" stroke-miterlimit="10"/>
<path d="M22.0498 28.4167H28.4165" stroke="white" stroke-width="5.09333" stroke-miterlimit="10"/>
<path d="M22.0498 34.7667H28.4165" stroke="white" stroke-width="5.09333" stroke-miterlimit="10"/>
<path d="M33.1836 39.55L34.7669 41.1333L37.9503 37.95" stroke="white" stroke-width="5.09333" stroke-miterlimit="10"/>
<path d="M22.0498 41.1334H28.4165" stroke="white" stroke-width="5.09333" stroke-miterlimit="10"/>
<path d="M44.3169 20.45V47.5H15.6836V12.5H36.3669L44.3169 20.45Z" stroke="white" stroke-width="5.09333" stroke-miterlimit="10"/>
<path d="M44.3166 20.45V22.05H34.7666V12.5H36.3666L44.3166 20.45Z" stroke="white" stroke-width="5.09333" stroke-miterlimit="10"/>
</g>
<defs>
<clipPath id="clip0_755_6457">
<rect width="40" height="40" fill="white" transform="translate(10 10)"/>
</clipPath>
</defs>
</svg>
