<svg width="26" height="25" viewBox="0 0 26 25" fill="none" xmlns="http://www.w3.org/2000/svg">
<path fill-rule="evenodd" clip-rule="evenodd" d="M19.4308 18.4328C19.797 18.0667 20.3906 18.0667 20.7567 18.4328L25.7074 23.3835C26.0736 23.7497 26.0736 24.3433 25.7074 24.7094C25.3413 25.0755 24.7477 25.0755 24.3816 24.7094L19.4308 19.7587C19.0647 19.3925 19.0647 18.7989 19.4308 18.4328Z" fill="#9A9A9A"/>
<path fill-rule="evenodd" clip-rule="evenodd" d="M12.3141 20.7573C17.5284 20.7573 21.7552 16.5304 21.7552 11.3161C21.7552 6.10194 17.5284 1.875 12.3141 1.875C7.09997 1.875 2.87304 6.10194 2.87304 11.3161C2.87304 16.5304 7.09997 20.7573 12.3141 20.7573ZM12.3141 22.6323C18.5639 22.6323 23.6302 17.5659 23.6302 11.3161C23.6302 5.0664 18.5639 0 12.3141 0C6.06443 0 0.998047 5.0664 0.998047 11.3161C0.998047 17.5659 6.06443 22.6323 12.3141 22.6323Z" fill="#9A9A9A"/>
</svg>
