<svg width="30" height="30" viewBox="0 0 30 30" fill="none" xmlns="http://www.w3.org/2000/svg">
<path d="M29.4331 17.7738L27.1476 15.9921C26.7834 15.7082 26.5813 15.2732 26.5811 14.8152C26.5811 14.8103 26.5811 14.8055 26.5811 14.8006C26.5803 14.3416 26.7827 13.9054 27.1475 13.6209L29.4331 11.8392C29.9565 11.4311 30.1417 10.7296 29.8864 10.1213L28.8825 7.7288C28.6273 7.12058 27.9938 6.75365 27.3314 6.83046L24.4389 7.16592C23.9771 7.21948 23.5215 7.05221 23.1933 6.72716C23.1898 6.72369 23.1864 6.72028 23.1829 6.71687C22.8549 6.39286 22.6863 5.94415 22.7404 5.48926L23.0802 2.6342C23.158 1.98034 22.7863 1.35505 22.1702 1.10311L19.7463 0.112111C19.1301 -0.139832 18.4194 0.0429366 18.006 0.559546L16.201 2.81552C15.9135 3.17498 15.4727 3.37452 15.0087 3.3747C15.0038 3.3747 14.9989 3.3747 14.9939 3.3747C14.529 3.37551 14.0871 3.17573 13.7989 2.81558L11.9939 0.559546C11.5806 0.0428787 10.8698 -0.139832 10.2536 0.112111L7.82985 1.10305C7.21368 1.35499 6.84196 1.98028 6.91977 2.6342L7.25956 5.48943C7.31382 5.94525 7.14448 6.39494 6.81512 6.71889C6.81167 6.72231 6.80821 6.72572 6.8047 6.72919C6.47645 7.05297 6.02188 7.21948 5.56098 7.16598L2.66862 6.83058C2.00621 6.75377 1.37276 7.12064 1.11752 7.72886L0.113576 10.1214C-0.141659 10.7296 0.0434976 11.4312 0.566857 11.8392L2.85237 13.6209C3.21653 13.9048 3.41868 14.3398 3.41885 14.7978C3.41885 14.8027 3.41885 14.8075 3.41885 14.8123C3.41967 15.2713 3.21729 15.7075 2.85243 15.992L0.566857 17.7738C0.043439 18.1818 -0.141659 18.8834 0.113576 19.4916L1.11752 21.8841C1.37276 22.4923 2.00627 22.8592 2.66862 22.7824L5.56116 22.447C6.023 22.3935 6.4785 22.5607 6.80675 22.8858C6.8102 22.8892 6.81366 22.8927 6.81718 22.8961C7.14513 23.2201 7.31382 23.6688 7.25968 24.1238L6.91989 26.9789C6.84208 27.6327 7.21374 28.258 7.82997 28.51L10.2538 29.501C10.8699 29.7529 11.5807 29.5701 11.9941 29.0535L13.799 26.7975C14.0866 26.4381 14.5273 26.2385 14.9912 26.2383C14.9962 26.2383 15.0011 26.2383 15.006 26.2383C15.471 26.2375 15.9129 26.4373 16.201 26.7974L18.0061 29.0535C18.4195 29.5702 19.1302 29.753 19.7464 29.501L22.1702 28.51C22.7863 28.258 23.1581 27.6327 23.0802 26.9789L22.7404 24.1236C22.6861 23.6678 22.8555 23.2181 23.1849 22.8942C23.1883 22.8908 23.1919 22.8873 23.1953 22.8839C23.5236 22.5602 23.9781 22.3936 24.439 22.4471L27.3314 22.7825C27.9938 22.8593 28.6273 22.4924 28.8825 21.8842L29.8864 19.4917C30.1417 18.8834 29.9565 18.1818 29.4331 17.7738ZM16.4819 19.0691C14.1569 20.0197 11.4914 18.9298 10.5284 16.6348C9.56534 14.3398 10.6694 11.7087 12.9944 10.758C15.3194 9.80739 17.985 10.8972 18.948 13.1923C19.911 15.4873 18.8069 18.1184 16.4819 19.0691Z" fill="#046E8F"/>
</svg>
