<svg width="60" height="60" viewBox="0 0 60 60" fill="none" xmlns="http://www.w3.org/2000/svg">
<path d="M30 60C46.5685 60 60 46.5685 60 30C60 13.4315 46.5685 0 30 0C13.4315 0 0 13.4315 0 30C0 46.5685 13.4315 60 30 60Z" fill="#046E8F"/>
<path d="M48.2254 45.1743L43.9826 40.9314C45.1597 39.3857 45.8683 37.4629 45.8683 35.3771C45.8645 32.9388 44.8938 30.6016 43.1691 28.878C41.4445 27.1544 39.1066 26.1851 36.6683 26.1829C34.231 26.1866 31.8946 27.1565 30.1711 28.88C28.4477 30.6034 27.4778 32.9398 27.474 35.3771C27.4763 37.8159 28.4459 40.1543 30.1701 41.879C31.8943 43.6038 34.2323 44.5741 36.6711 44.5771C38.7597 44.5771 40.6826 43.8686 42.2254 42.6914L46.4683 46.9314C46.5828 47.0473 46.7192 47.1392 46.8695 47.202C47.0198 47.2648 47.1811 47.2971 47.344 47.2971C47.5069 47.2971 47.6682 47.2648 47.8185 47.202C47.9688 47.1392 48.1052 47.0473 48.2197 46.9314C48.3358 46.8166 48.428 46.68 48.4911 46.5294C48.5542 46.3789 48.587 46.2173 48.5875 46.0541C48.5881 45.8908 48.5563 45.729 48.4942 45.5781C48.4321 45.4271 48.3407 45.2899 48.2254 45.1743ZM29.9569 35.3771C29.9591 33.5971 30.6673 31.8906 31.9259 30.6319C33.1846 29.3733 34.8911 28.6651 36.6711 28.6629C38.4519 28.6629 40.1597 29.3703 41.4189 30.6294C42.678 31.8886 43.3854 33.5964 43.3854 35.3771C43.3854 37.1579 42.678 38.8657 41.4189 40.1249C40.1597 41.384 38.4519 42.0914 36.6711 42.0914C34.8913 42.0884 33.1853 41.38 31.9268 40.1215C30.6682 38.863 29.9599 37.157 29.9569 35.3771ZM40.514 20.5914C40.514 21.2771 39.9569 21.8314 39.2711 21.8314H26.8511C26.5223 21.8314 26.2069 21.7008 25.9743 21.4682C25.7418 21.2357 25.6111 20.9203 25.6111 20.5914C25.6111 20.2626 25.7418 19.9472 25.9743 19.7146C26.2069 19.4821 26.5223 19.3514 26.8511 19.3514H39.2711C39.9569 19.3514 40.514 19.9057 40.514 20.5914ZM16.7083 44.8114H24.9883C25.3033 44.8328 25.5985 44.973 25.8141 45.2038C26.0297 45.4345 26.1497 45.7385 26.1497 46.0543C26.1497 46.3701 26.0297 46.6741 25.8141 46.9048C25.5985 47.1355 25.3033 47.2758 24.9883 47.2972H16.7083C14.4283 47.2972 12.5654 45.44 12.5654 43.1543V21.0571C12.5654 20.5 12.7654 19.96 13.1226 19.5314L19.3911 12.0743C19.6014 11.8241 19.8637 11.6229 20.1598 11.4847C20.4559 11.3465 20.7787 11.2747 21.1054 11.2743H41.3397C43.6226 11.2743 45.4826 13.1314 45.4826 15.4171V24.3143C45.4826 24.6439 45.3516 24.96 45.1185 25.1931C44.8855 25.4262 44.5693 25.5571 44.2397 25.5571C43.9101 25.5571 43.594 25.4262 43.3609 25.1931C43.1278 24.96 42.9969 24.6439 42.9969 24.3143V15.4143C42.9961 14.9763 42.822 14.5564 42.5125 14.2464C42.203 13.9364 41.7834 13.7615 41.3454 13.76H23.1254V20.9429C23.1201 21.4665 22.9076 21.9667 22.5344 22.3341C22.1612 22.7014 21.6577 22.9059 21.134 22.9029H15.054V43.1572C15.054 44.0686 15.7969 44.8114 16.7083 44.8114ZM20.6426 14.4457L15.6226 20.4171H20.6426V14.4457ZM23.7483 33.0457C24.0779 33.0457 24.394 32.9148 24.6271 32.6817C24.8602 32.4486 24.9911 32.1325 24.9911 31.8029C24.9911 31.4732 24.8602 31.1571 24.6271 30.924C24.394 30.691 24.0779 30.56 23.7483 30.56H19.3997C19.0701 30.56 18.754 30.691 18.5209 30.924C18.2878 31.1571 18.1569 31.4732 18.1569 31.8029C18.1569 32.1325 18.2878 32.4486 18.5209 32.6817C18.754 32.9148 19.0701 33.0457 19.3997 33.0457H23.7483ZM23.7483 38.7514C24.0775 38.7514 24.3933 38.6206 24.6261 38.3878C24.8589 38.155 24.9897 37.8393 24.9897 37.51C24.9897 37.1808 24.8589 36.865 24.6261 36.6322C24.3933 36.3994 24.0775 36.2686 23.7483 36.2686H19.3997C19.0705 36.2686 18.7547 36.3994 18.5219 36.6322C18.2891 36.865 18.1583 37.1808 18.1583 37.51C18.1583 37.8393 18.2891 38.155 18.5219 38.3878C18.7547 38.6206 19.0705 38.7514 19.3997 38.7514H23.7483ZM24.9883 24.9543H19.3997C19.0705 24.9543 18.7547 25.0851 18.5219 25.3179C18.2891 25.5507 18.1583 25.8665 18.1583 26.1957C18.1583 26.525 18.2891 26.8407 18.5219 27.0735C18.7547 27.3064 19.0705 27.4372 19.3997 27.4372H24.9883C25.3175 27.4372 25.6333 27.3064 25.8661 27.0735C26.0989 26.8407 26.2297 26.525 26.2297 26.1957C26.2297 25.8665 26.0989 25.5507 25.8661 25.3179C25.6333 25.0851 25.3175 24.9543 24.9883 24.9543Z" fill="white"/>
</svg>
