<svg width="40" height="30" viewBox="0 0 40 30" fill="none" xmlns="http://www.w3.org/2000/svg">
<path d="M34.0586 17.3423C36.5985 17.3423 38.6578 15.2236 38.6578 12.6089C38.6578 9.99417 36.5984 7.87402 34.0586 7.87402C31.5194 7.87402 29.46 9.99417 29.46 12.6089C29.46 15.2236 31.5194 17.3423 34.0586 17.3423Z" fill="#046E8F"/>
<path d="M39.9475 21.9044C39.7426 20.6367 38.7247 18.8624 37.9542 18.0698C37.8527 17.9648 37.3992 17.9405 37.2767 18.0187C36.3399 18.6117 35.2396 18.9608 34.0587 18.9608C32.8791 18.9608 31.7787 18.6117 30.8419 18.0187C30.7188 17.9405 30.2659 17.9648 30.1644 18.0698C29.949 18.2916 29.714 18.5867 29.4849 18.929C30.1048 20.1306 30.5964 21.407 30.7738 22.5061C30.9512 23.608 30.8936 24.6511 30.6068 25.6021C31.6254 25.9815 32.8469 26.148 34.0586 26.148C37.2192 26.148 40.4535 25.0198 39.9475 21.9044Z" fill="#046E8F"/>
<path d="M19.8818 15.3446C23.998 15.3446 27.3352 11.9091 27.3352 7.67166C27.3352 3.43554 23.998 0 19.8818 0C15.7664 0 12.4304 3.43554 12.4304 7.67166C12.4304 11.9091 15.7663 15.3446 19.8818 15.3446Z" fill="#046E8F"/>
<path d="M26.1929 16.5194C26.0312 16.3537 25.2967 16.3113 25.097 16.4385C23.5777 17.4009 21.7946 17.9643 19.8818 17.9643C17.9704 17.9643 16.1865 17.4009 14.6679 16.4385C14.4683 16.3112 13.7339 16.3537 13.5721 16.5194C12.3205 17.8066 10.6709 20.6841 10.339 22.7355C9.52073 27.7885 14.7635 29.6127 19.8818 29.6127C25.0015 29.6127 30.2442 27.7885 29.4259 22.7355C29.0941 20.6841 27.4445 17.8066 26.1929 16.5194Z" fill="#046E8F"/>
<path d="M5.94133 17.3423C8.48055 17.3423 10.5399 15.2236 10.5399 12.6089C10.5399 9.99417 8.48055 7.87402 5.94133 7.87402C3.40141 7.87402 1.34204 9.99417 1.34204 12.6089C1.34204 15.2236 3.40141 17.3423 5.94133 17.3423Z" fill="#046E8F"/>
<path d="M8.99175 22.5061C9.18034 21.3518 9.71245 19.9925 10.3796 18.7357C10.1936 18.4742 10.0078 18.2464 9.8362 18.0698C9.73471 17.9648 9.28175 17.9405 9.1587 18.0187C8.2219 18.6117 7.12151 18.9608 5.94136 18.9608C4.76105 18.9608 3.65996 18.6117 2.72394 18.0187C2.60144 17.9405 2.14722 17.9648 2.04574 18.0698C1.27332 18.8624 0.258084 20.6367 0.052459 21.9044C-0.452853 25.0198 2.78089 26.1479 5.94136 26.1479C7.06925 26.1479 8.20823 26.005 9.18034 25.6782C8.87401 24.7078 8.80917 23.6403 8.99175 22.5061Z" fill="#046E8F"/>
</svg>
