<svg width="60" height="60" viewBox="0 0 60 60" fill="none" xmlns="http://www.w3.org/2000/svg">
<path d="M30 60C46.5685 60 60 46.5685 60 30C60 13.4315 46.5685 0 30 0C13.4315 0 0 13.4315 0 30C0 46.5685 13.4315 60 30 60Z" fill="#046E8F"/>
<g clip-path="url(#clip0_755_6456)">
<path d="M47.6665 20.75L40.9165 13.3333H19.0831L12.3331 20.75C11.886 21.2281 11.6443 21.8626 11.6599 22.517C11.6755 23.1714 11.9471 23.7937 12.4165 24.25L18.6665 30.5V46.6666H41.4165V30.5L47.6665 24.25C48.1246 23.7827 48.3811 23.1544 48.3811 22.5C48.3811 21.8456 48.1246 21.2173 47.6665 20.75ZM40.6665 26.4166L38.0832 24V43.3333H21.9165V24L19.3331 26.4166L15.3331 22.4166L20.5831 16.6666H26.7498C26.9177 17.4031 27.3306 18.0607 27.9211 18.5317C28.5116 19.0028 29.2445 19.2593 29.9998 19.2593C30.7551 19.2593 31.4881 19.0028 32.0785 18.5317C32.669 18.0607 33.082 17.4031 33.2498 16.6666H39.4165L44.6665 22.4166L40.6665 26.4166Z" fill="white"/>
</g>
<defs>
<clipPath id="clip0_755_6456">
<rect width="40" height="40" fill="white" transform="translate(10 10)"/>
</clipPath>
</defs>
</svg>
