<svg width="80" height="80" viewBox="0 0 80 80" fill="none" xmlns="http://www.w3.org/2000/svg">
<path d="M40 80C62.0914 80 80 62.0914 80 40C80 17.9086 62.0914 0 40 0C17.9086 0 0 17.9086 0 40C0 62.0914 17.9086 80 40 80Z" fill="#046E8F"/>
<path d="M59.6031 72.6584C58.7094 72.0278 57.7472 71.026 56.9833 70.1575C56.2193 69.2891 56.0031 68.781 55.0517 67.3647C54.1004 65.9449 53.7004 65.5629 52.749 64.7521C51.7977 63.9413 49.3184 62.4314 47.2896 61.5846C45.2608 60.7413 44.9725 60.4566 44.9725 60.4566L41.5671 57.6747C41.5671 57.6747 40.0247 56.5755 39.0878 56.0783C38.1544 55.581 37.4445 55.0332 36.6265 55.1737C35.8085 55.3143 35.3004 56.071 35.3004 56.5864C35.2968 57.1017 36.0716 57.9377 36.5544 58.4206C37.0373 58.9035 37.8445 59.9341 38.5581 60.5936C39.2716 61.253 40.5617 62.0819 40.5617 62.0819L41.9743 62.4458L41.459 63.1269C41.459 63.1269 40.9725 62.8206 40.3526 62.4963C40.0932 62.3593 39.8085 62.2188 39.5274 62.0963C38.5761 61.6819 35.5815 60.6188 35.5815 60.6188L29.8878 57.026L29.1562 56.7521L29.7617 59.5053L35.1815 65.0476L43.9815 68.7017L48.9977 76.0494C48.9977 76.0494 50.504 77.9197 50.8571 78.208C50.8932 78.2368 50.9977 78.3161 51.149 78.4314C54.8103 77.3719 58.2517 75.8044 61.3977 73.808C60.7202 73.3864 59.9995 72.9359 59.6031 72.6584Z" fill="#F5F5F5" stroke="#F5F5F5" stroke-miterlimit="10"/>
<path d="M51.0028 67.5429C49.7488 66.8294 47.8785 66.5195 47.4893 65.9537C47.1001 65.388 46.2929 64.8835 45.5542 64.0366C44.8154 63.1862 44.8947 60.7646 44.9055 59.7519C44.9163 58.7393 44.7974 56.7682 44.8551 56.5375C44.9163 56.3069 45.4461 52.7105 45.3307 51.7736C45.2154 50.8366 44.6893 50.4546 43.8641 50.4582C43.0388 50.4619 42.6965 51.6907 42.6965 51.6907C42.6965 51.6907 41.7668 54.2384 41.5001 55.233C41.2334 56.2276 40.6136 58.6997 40.437 59.9898C40.2605 61.2799 40.9343 64.4114 40.9343 64.4114C40.9343 64.4114 39.9109 64.3682 39.3343 64.2456C38.7578 64.1231 38.437 63.7483 37.7091 63.0997C36.9812 62.4474 35.8569 61.042 35.392 60.3141C34.9271 59.5862 34.7325 54.9555 34.801 54.7898C34.8659 54.624 34.7578 52.5483 34.9163 51.788C35.0749 51.0276 35.3163 49.9682 34.9884 49.1609C34.6569 48.3537 33.7632 48.1051 33.3452 48.0582C32.9271 48.0114 32.4154 48.3934 32.2929 49.1646C32.1704 49.9357 31.4821 52.1772 31.3127 52.9844C31.1434 53.7916 31.0497 54.9664 31.0857 56.0042C31.1217 57.042 30.8551 59.1682 30.8551 59.1682L30.2713 58.1808L29.8533 56.9628C29.8533 56.9628 29.583 56.051 29.3848 55.4492C29.183 54.8474 28.192 53.7267 28.192 53.7267C28.192 53.7267 27.8713 50.3033 27.0641 48.8691C26.2569 47.4348 24.9091 47.6835 24.9091 47.6835C24.9091 47.6835 24.0046 47.7303 23.8785 48.5087C23.7488 49.2907 24.2749 51.3267 24.2749 51.3267C24.2749 51.3267 23.6118 50.8943 23.0497 50.5483C22.4875 50.2024 22.0551 50.5591 21.9325 50.6673C21.81 50.7754 21.4569 51.0564 21.6587 51.6979C21.8605 52.3393 22.5488 53.2402 23.2911 54.3826C24.0298 55.5285 24.1596 55.8168 24.5668 56.2348C24.974 56.6564 26.6497 58.9015 26.6497 58.9015C26.6497 58.9015 26.974 60.3141 27.4713 61.197C27.9686 62.0835 28.6569 62.4691 29.5974 63.2655C30.5379 64.0618 33.392 66.9267 34.019 67.6943C34.6461 68.4619 35.3055 69.651 35.7848 70.1447C36.2641 70.6384 36.783 70.642 37.5614 70.8655C38.3398 71.0853 43.1217 73.0348 46.1848 74.9447C47.8965 76.015 49.6334 77.2546 50.8298 78.1411C50.9199 78.206 51.0424 78.2997 51.1866 78.415C54.8803 77.3411 58.3542 75.7519 61.5217 73.7267C58.3361 71.8492 51.9397 68.0763 51.0028 67.5429Z" fill="white" stroke="white" stroke-miterlimit="10" stroke-linecap="round" stroke-linejoin="round"/>
<path d="M39.5977 27.2329C39.5977 27.2329 40.4409 25.9788 42.0157 24.2059C43.4175 22.6275 45.1256 21.5176 45.1256 21.5176C45.1256 21.5176 46.5923 22.3969 48.2175 26.1158C49.0715 28.0689 49.385 29.8599 49.6697 32.541C49.958 35.2221 49.6301 38.8401 49.2301 40.4869C48.8301 42.1338 48.5202 42.4978 48.5202 42.4978C48.5202 42.4978 47.4319 43.3122 45.385 44.1806C43.3382 45.0491 40.9634 45.4059 40.9634 45.4059C40.9634 45.4059 42.1959 41.1716 42.3941 39.3987C42.5923 37.6257 42.7004 36.2924 42.4661 34.2996C42.2319 32.3068 41.713 30.7392 41.0679 29.4924C40.4229 28.2455 39.5977 27.2329 39.5977 27.2329Z" fill="white" stroke="white" stroke-miterlimit="10"/>
<path d="M46.7734 20.6018C46.7734 20.6018 48.0779 19.8991 49.6275 19.3658C51.1734 18.8325 52.7302 18.5586 52.7302 18.5586C52.7302 18.5586 54.3446 20.9982 54.8347 22.4757C55.3248 23.9532 55.7933 26.0217 55.8725 27.7045C55.9518 29.3874 55.6455 31.7838 55.123 33.4343C54.6005 35.0847 53.7212 36.8649 52.9212 38.0505C52.1212 39.2361 51.0257 40.3496 51.0257 40.3496C51.0257 40.3496 51.7032 37.7838 51.5482 34.609C51.3933 31.4343 51.2419 30.6883 50.8059 28.4973C50.3662 26.3099 49.7536 24.9622 48.9969 23.5496C48.2365 22.1298 46.7734 20.6018 46.7734 20.6018Z" fill="white" stroke="white" stroke-miterlimit="10" stroke-linecap="round" stroke-linejoin="round"/>
<path d="M31.082 25.4413C31.082 25.4413 32.7289 26.0719 34.2496 26.3566C35.7703 26.6413 37.8784 26.6665 37.8784 26.6665C37.8784 26.6665 38.8514 24.98 40.8802 22.807C42.9091 20.634 44.8658 19.4953 46.7505 18.5908C48.6352 17.6899 51.4316 16.9656 51.4316 16.9656C51.4316 16.9656 49.9289 15.3295 48.4514 14.3349C46.646 13.1169 44.891 12.4395 44.891 12.4395C44.891 12.4395 42.019 13.8196 39.7127 15.4773C37.4064 17.1349 36.3289 18.3638 35.5037 19.3151C34.6784 20.2665 33.6514 21.5638 33.1505 22.2845C32.6532 23.0052 31.082 25.4413 31.082 25.4413Z" fill="white" stroke="white" stroke-miterlimit="10" stroke-linecap="round" stroke-linejoin="round"/>
<path d="M29.383 24.7062C29.383 24.7062 32.1181 20.418 33.9667 18.3099C35.8154 16.2017 36.7163 15.5171 38.0352 14.49C39.3541 13.4666 42.3127 11.7008 42.3127 11.7008C42.3127 11.7008 38.2226 10.6594 33.9992 11.9495C29.7793 13.236 27.9956 15.0882 26.9037 16.0864C25.8118 17.0882 24.601 18.7099 24.255 19.2792C23.9091 19.8486 23.6172 20.3963 23.6172 20.3963C23.6172 20.3963 24.2298 21.4702 25.9271 22.7026C27.6208 23.9315 29.383 24.7062 29.383 24.7062Z" fill="white" stroke="white" stroke-miterlimit="10" stroke-linecap="round" stroke-linejoin="round"/>
<path d="M22.7771 22.2627C22.7771 22.2627 22.1537 23.7186 21.8762 25.3906C21.5951 27.0627 21.6347 28.0717 21.6347 28.0717C21.6347 28.0717 23.3825 30.0717 26.8888 32.3708C30.3951 34.6663 32.5897 35.1456 33.732 35.5204C34.878 35.8951 37.7537 36.1077 38.6473 36.0573C39.541 36.0068 40.7699 35.8231 40.7699 35.8231C40.7699 35.8231 40.8383 34.1834 40.1609 32.0609C39.487 29.9348 38.5537 28.7924 38.4744 28.6915C38.3987 28.5906 38.2365 28.4104 38.2365 28.4104C38.2365 28.4104 35.9482 28.6195 33.541 28.0357C31.1302 27.4519 29.8329 27.0086 27.2924 25.6645C24.7518 24.3204 23.869 23.3186 23.5266 23.0086C23.1915 22.7023 22.7771 22.2627 22.7771 22.2627Z" fill="white" stroke="white" stroke-miterlimit="10" stroke-linecap="round" stroke-linejoin="round"/>
<path d="M39.0389 45.5577C39.0389 45.5577 39.7669 43.5974 40.138 41.9217C40.5092 40.246 40.7543 37.6118 40.7543 37.6118C40.7543 37.6118 37.3344 38.3938 32.8984 37.1397C28.4624 35.8857 24.9092 33.2947 23.7092 32.3217C22.5092 31.3487 21.8281 30.7686 21.8281 30.7686C21.8281 30.7686 22.1452 34.0659 24.1308 37.374C26.1164 40.6821 29.0317 42.5559 30.2678 43.3199C31.5038 44.0839 32.8083 44.6028 34.3867 45.0316C35.9651 45.4604 39.0389 45.5577 39.0389 45.5577Z" fill="white" stroke="white" stroke-miterlimit="10" stroke-linecap="round" stroke-linejoin="round"/>
</svg>
